/* XPM */
static char *f25b9a18d8b2499a83fbfa2586f92f24qSRZhMjaU8Smv9xX[] = {
/* columns rows colors chars-per-pixel */
"50 50 162 2 ",
"   c #7D1B0F",
".  c #7C1D13",
"X  c #792B1A",
"o  c #783B20",
"O  c #6C4C23",
"+  c #7D4326",
"@  c #795A2D",
"#  c #6E5D34",
"$  c #53742F",
"%  c #597936",
"&  c #6A6434",
"*  c #7E6634",
"=  c #6B7339",
"-  c #787539",
";  c #727C38",
":  c #727A43",
">  c #850D0B",
",  c #890E0D",
"<  c #841310",
"1  c #8E1410",
"2  c #811C14",
"3  c #8A1A14",
"4  c #931512",
"5  c #971914",
"6  c #961A17",
"7  c #9D1A16",
"8  c #9F1D19",
"9  c #A11A17",
"0  c #A41E1A",
"q  c #AA1F1C",
"w  c #94261C",
"e  c #A7221D",
"r  c #AC221E",
"t  c #B0241F",
"y  c #813023",
"u  c #993A2B",
"i  c #AE2723",
"p  c #B22522",
"a  c #B52A26",
"s  c #B32E29",
"d  c #B92E2A",
"f  c #BC312D",
"g  c #AA3D34",
"h  c #B53530",
"j  c #BD3936",
"k  c #C13A36",
"l  c #C33E3A",
"z  c #8D4C2C",
"x  c #826C36",
"c  c #C5413E",
"v  c #CA423E",
"b  c #BE4540",
"n  c #BB5D49",
"m  c #8F6A46",
"M  c #857840",
"N  c #98794C",
"B  c #A66D4C",
"V  c #BB6D54",
"C  c #A57652",
"Z  c #CB4542",
"A  c #CD4844",
"S  c #D14A46",
"D  c #D44D4B",
"F  c #DA4E4D",
"G  c #CA574D",
"H  c #D8524F",
"J  c #DB5552",
"K  c #D95B56",
"L  c #E05855",
"P  c #E45D5B",
"I  c #CD6F5B",
"U  c #E7615F",
"Y  c #EC605F",
"T  c #DA6D64",
"R  c #DC7166",
"E  c #EB6464",
"W  c #EC6866",
"Q  c #F2676B",
"!  c #F26E6E",
"~  c #EA716D",
"^  c #EE7775",
"/  c #F37174",
"(  c #F47B7B",
")  c #3D9435",
"_  c #488F39",
"`  c #549C3E",
"'  c #58993E",
"]  c #6C833A",
"[  c #648D3D",
"{  c #6A8B3D",
"}  c #72863E",
"|  c #71883D",
" . c #62933E",
".. c #65983F",
"X. c #51A03F",
"o. c #2BBD44",
"O. c #35B243",
"+. c #3EB343",
"@. c #36BE46",
"#. c #3DB945",
"$. c #3DB648",
"%. c #3BBC4A",
"&. c #4F9B43",
"*. c #579843",
"=. c #7A8646",
"-. c #77944E",
";. c #629950",
":. c #789D53",
">. c #4CAC4C",
",. c #55A746",
"<. c #50A842",
"1. c #58A148",
"2. c #43B345",
"3. c #4BB74C",
"4. c #44BD4A",
"5. c #50B150",
"6. c #5FB558",
"7. c #62A54B",
"8. c #67AC55",
"9. c #7AAA59",
"0. c #1ED649",
"q. c #17DD4A",
"w. c #1BDA4A",
"e. c #2ACA47",
"r. c #2BCA47",
"t. c #2BC648",
"y. c #27CE48",
"u. c #33C245",
"i. c #34C049",
"p. c #31CC4D",
"a. c #23D54B",
"s. c #29D54E",
"d. c #21D94D",
"f. c #31D04F",
"g. c #34CE51",
"h. c #2ED251",
"j. c #35D455",
"k. c #47C150",
"l. c #4CC355",
"z. c #42CB56",
"x. c #52C55B",
"c. c #86884B",
"v. c #8C8C54",
"b. c #908850",
"n. c #879857",
"m. c #98935B",
"M. c #9D9B66",
"N. c #AF8961",
"B. c #B4946C",
"V. c #87AA65",
"C. c #C18363",
"Z. c #C18A6B",
"A. c #F38383",
"S. c #F48E8C",
"D. c #F69596",
"F. c #F39897",
"G. c #F3A4A3",
"H. c #F7B0B0",
"J. c #F7BABA",
"K. c #FDE4E3",
"L. c #FDECEB",
"P. c #FCF4F4",
/* pixels */
"w.w.w.w.w.w.w.w.w.w.w.w.w.w.w.w.w.w.w.w.w.w.w.w.w.w.w.w.w.w.w.w.w.w.w.w.w.w.w.w.w.w.w.w.w.w.w.w.w.w.",
"w.w.w.w.w.w.w.w.w.w.w.w.w.w.w.w.w.w.w.w.w.w.w.w.w.w.w.w.w.w.0.w.w.w.w.w.w.w.w.w.w.w.0.w.w.w.w.w.w.w.",
"w.w.w.w.w.w.w.w.w.w.w.w.w.w.w.w.0.w.w.w.w.w.w.w.w.w.w.w.w.w.w.w.w.w.w.w.w.w.w.w.w.w.w.w.w.w.w.w.w.w.",
"w.w.w.w.w.w.w.w.w.w.w.w.w.w.w.w.w.w.w.w.w.w.w.w.w.w.w.w.w.w.w.w.w.w.w.w.w.w.w.w.w.w.w.w.w.w.w.w.w.w.",
"w.w.w.w.w.w.w.w.w.w.w.w.w.w.w.w.w.w.w.w.w.w.w.w.w.w.w.w.w.w.w.w.w.w.w.w.w.w.w.w.w.w.w.w.w.w.w.w.w.w.",
"w.w.w.w.w.w.w.w.w.w.w.w.w.w.w.w.w.w.w.w.w.w.w.w.w.w.w.w.w.w.w.w.w.w.w.w.w.w.w.w.w.w.w.w.w.w.w.w.w.w.",
"w.w.w.w.w.w.w.w.w.w.w.w.w.w.w.w.w.w.w.w.w.w.w.w.y.y.w.w.w.w.w.w.w.w.w.w.w.w.w.w.w.w.w.w.w.w.w.w.w.w.",
"w.w.w.w.w.w.w.w.w.w.w.w.w.0.w.w.w.w.w.w.w.w.w.a.} [ 0.w.w.w.w.w.w.w.w.w.w.w.w.0.w.w.w.w.w.w.w.w.0.w.",
"w.w.w.w.w.w.w.w.w.w.w.w.w.w.w.w.w.w.w.w.w.w.w.s.M ; 0.w.w.w.w.w.w.w.w.w.w.w.w.w.w.w.w.w.w.w.w.w.w.w.",
"w.w.w.w.w.w.w.w.w.w.w.w.w.w.w.w.w.w.w.w.w.w.w.y.- ; 0.w.w.w.w.w.w.w.w.w.w.w.w.w.w.w.w.w.w.w.w.w.w.w.",
"0.w.w.w.w.w.w.w.0.w.w.w.w.w.w.w.w.w.w.w.w.w.w.d.; ; 0.w.w.w.w.w.w.w.w.w.w.w.w.w.w.w.w.w.w.w.w.w.w.w.",
"w.w.w.w.w.w.w.w.w.w.w.w.w.w.w.w.w.w.w.w.w.w.w.a.; ; a.w.w.w.w.w.w.w.w.w.w.w.w.w.w.w.w.w.w.w.w.w.w.w.",
"w.w.w.w.w.w.w.w.w.w.w.w.w.w.w.w.w.w.w.w.w.w.w.r.x * y.w.w.w.w.w.w.w.w.w.w.w.w.w.w.w.w.w.w.w.w.w.w.w.",
"w.w.w.w.w.w.w.w.w.w.w.w.w.w.w.w.w.w.w.w.w.w.q.#.x - @.w.w.w.w.w.w.w.w.w.w.w.w.w.w.w.w.w.w.w.w.w.w.w.",
"w.w.w.w.w.w.w.w.w.w.w.w.w.w.w.w.w.w.w.w.w.w.q.X. .{ ` w.w.w.w.w.w.w.w.w.w.w.w.w.w.w.0.w.w.w.w.w.w.w.",
"w.w.w.w.w.w.w.w.w.w.w.w.w.w.w.w.w.w.w.w.w.q.q...X.2.] 0.w.w.w.w.w.w.w.w.w.w.w.w.w.w.w.w.w.w.w.w.w.w.",
"w.w.w.w.w.w.w.w.w.w.w.w.w.w.w.w.w.w.w.w.w.w.y.| r.u.] y.w.w.w.w.w.w.w.w.w.w.w.w.w.w.w.w.w.w.w.w.w.w.",
"w.w.w.w.w.w.w.w.w.w.w.w.w.w.w.w.w.w.w.w.w.q.#.{ w.y.} u.w.w.w.w.w.w.w.w.w.w.w.w.w.w.w.w.w.w.w.w.w.w.",
"w.w.w.w.w.w.w.w.w.w.w.w.w.w.w.w.w.w.w.w.w.w.X.7.w.d.[ X.w.w.w.w.w.w.w.w.w.w.w.w.w.w.w.w.w.w.w.0.w.w.",
"w.w.w.w.w.w.w.w.w.w.w.w.w.w.w.w.w.w.w.w.w.0. .4.w.q.X.' w.w.w.w.w.w.w.w.w.w.w.w.w.w.w.w.w.w.w.w.w.w.",
"w.w.w.w.w.w.w.w.w.w.w.w.w.w.w.w.w.w.w.w.w.u.] a.d.q.y.{ p.w.w.w.w.w.w.w.w.w.w.w.w.w.w.w.w.w.w.w.w.w.",
"w.w.w.w.w.w.w.w.w.w.w.w.w.w.w.w.w.w.w.w.q.X.` w.w.q.q.X.2.w.w.w.w.w.w.w.w.w.w.w.w.w.w.w.w.w.w.w.w.w.",
"w.w.w.w.w.w.w.w.w.w.w.w.w.w.w.w.w.w.w.w.a.] u.w.w.w.w.X. .w.w.w.w.w.w.w.w.w.w.w.w.w.w.w.w.w.w.w.w.w.",
"w.w.w.w.w.w.w.w.w.w.w.w.w.w.w.w.w.w.w.w.+.] d.w.w.w.w.r.| p.w.w.w.w.w.w.w.w.w.w.w.w.w.w.w.w.w.w.w.w.",
"w.w.w.w.w.w.w.w.w.w.w.w.w.w.w.w.w.w.w.0. .<.q.w.w.w.w.w...7.d.d.w.w.w.w.w.w.w.w.w.w.w.w.w.w.w.w.w.w.",
"w.w.w.w.w.w.w.w.w.w.w.w.w.w.w.w.w.w.q.u.] y.w.w.w.w.w.w.r.} f.w.w.w.w.w.w.w.w.w.w.w.w.w.w.w.w.w.w.w.",
"w.w.w.w.w.w.w.w.w.w.w.w.w.w.w.w.w.w.w.' ` w.w.w.w.w.w.w.d...,.w.w.w.w.w.w.w.w.w.w.w.w.w.w.w.w.w.w.w.",
"w.w.w.w.w.w.w.a.w.w.w.w.w.s.s.w.w.w.r.] r.w.w.w.w.w.w.w.q.u.| s.w.q.d.y.0.w.w.w.w.w.w.w.w.w.w.w.w.d.",
"w.w.w.w.w.w.w.w.w.w.w.s.V.Z.C.m.k.w.<...w.w.w.w.w.w.w.w.w.a...k.w.>.* z @ &.0.w.w.w.w.w.w.w.w.w.w.w.",
"w.w.w.w.w.w.w.w.w.w.j.B.Q ( / E I 8.c.3.q.w.w.w.w.w.w.d.q.q.k.9.-.b f q 7 6 % a.w.w.w.w.w.w.w.w.w.w.",
"w.w.w.w.w.w.w.w.w.d.M.Q D.K.H.W P V v.v.=.1.y.w.w.w.d.z.V.n.-.b.n Z l i 9 6 3 &.w.w.w.w.w.w.w.w.w.w.",
"w.w.w.w.w.w.w.w.w.l.T W J.L.D.E U G G S l a x r.w.q.x.C.Y Y P G D A c a 0 8 1 o t.w.w.w.w.w.w.w.w.w.",
"w.w.w.w.w.w.w.w.w.:.P U ^ ( W U L J D v k t 9 = 0.j.B.Q A.! E L J S Z s q 7 5 3 +.0.w.w.w.w.w.w.w.w.",
"w.w.w.w.w.w.w.w.w.b.J P P U P P J F S v d r 9 + a.l.~ S.L.G.E P J D Z d i 7 4 1 % w.w.w.w.w.w.w.w.w.",
"w.w.w.w.w.w.w.w.w.N F J J K J J F S l k t q 5 + a.l.W D.P.G.E P J D Z d i 7 5 , # d.q.w.w.w.w.w.w.w.",
"w.w.w.w.w.w.w.w.a.B S D H D D D S l k p q 7 4 O 0.z.R ! S.~ P L F S Z s q 7 4 , # w.w.w.w.w.w.w.w.w.",
"w.w.w.w.w.w.w.w.s.N Z Z Z v Z v l d p q 8 5 , % 0.d.N.E U U L J D Z l a e 7 4 > : d.w.w.w.w.w.w.w.w.",
"w.w.w.w.w.w.w.w.w.=.j j c c c f p r q 9 4 1 X o.w.w.6.K K J J D Z Z h i 0 5 1 < ;.w.w.w.w.w.w.w.w.w.",
"w.w.w.w.w.w.w.w.q.5.g s s i r r q 9 7 4 1   ) w.w.w.d.b.F D S A Z j s 0 5 4 , y %.q.w.w.w.w.w.w.w.w.",
"w.w.w.0.w.w.w.w.w.d.; e 7 0 7 7 5 4 4 < < $ w.w.w.w.w.f.C Z v v j h i 7 5 , 2 *.d.q.w.w.w.w.w.w.w.w.",
"w.w.w.w.w.w.w.w.w.w.h.: w 4 4 1 < , > . % 0.w.w.w.w.w.q.h.N b j h i 8 6 1 X _ d.q.w.w.w.w.w.w.w.w.w.",
"w.w.w.w.w.w.w.w.w.w.w.d.>.& o . . X # >.w.w.w.w.w.w.w.w.q.d.8.m u w w y : $.w.w.w.w.w.w.w.w.w.w.w.w.",
"w.w.w.w.w.w.w.w.w.w.w.w.q.d.i.O.O.t.a.w.w.w.w.w.w.w.w.w.w.w.w.d.@.O.O.g.d.q.d.w.w.w.w.w.w.w.w.w.w.w.",
"w.w.w.w.w.w.w.w.w.w.w.w.w.w.w.w.q.w.w.w.w.w.w.w.w.w.w.w.w.w.w.w.w.q.q.w.w.w.w.w.w.w.w.w.w.w.w.w.w.w.",
"w.w.w.w.w.w.w.w.w.w.w.w.w.w.w.w.w.w.w.w.w.w.w.w.w.w.w.w.w.w.w.w.w.w.w.w.w.w.w.w.w.w.w.w.w.w.w.w.w.w.",
"w.w.w.w.w.w.w.w.w.w.w.w.w.w.w.w.w.w.w.w.w.w.w.w.w.w.w.w.w.w.w.w.w.w.w.w.w.w.w.w.w.w.w.w.w.w.w.w.w.w.",
"w.w.w.w.w.w.w.w.w.w.w.w.w.w.w.w.w.w.w.w.w.w.w.w.w.w.w.w.w.w.w.w.w.w.w.w.w.w.w.w.w.w.w.w.w.w.w.w.w.w.",
"w.w.w.w.w.w.w.w.w.w.w.w.w.w.w.w.w.w.w.w.w.w.w.w.w.w.w.w.w.0.w.w.w.w.w.w.w.w.w.w.w.w.w.w.w.w.w.w.w.w.",
"w.w.w.w.w.w.w.w.w.w.w.w.w.w.w.w.w.w.w.w.w.w.w.w.w.w.w.w.w.w.w.w.w.w.w.w.w.w.w.w.w.w.w.w.w.w.w.w.w.w.",
"w.w.w.0.w.w.w.w.w.w.w.w.w.w.w.w.w.w.w.w.w.w.w.w.w.w.w.w.w.w.w.w.w.w.w.w.w.w.w.w.w.w.w.w.w.w.w.w.w.w."
};
