/* XPM */
static char *adeb1f5da2c7406e9981d860e6419b293bnaxkuQ3mlnY8KI[] = {
/* columns rows colors chars-per-pixel */
"50 50 157 2 ",
"   c #7C6A3B",
".  c #667C38",
"X  c #6A793B",
"o  c #777637",
"O  c #7B7337",
"+  c #7B773A",
"@  c #737C38",
"#  c #7C7839",
"$  c #AC382F",
"%  c #B53430",
"&  c #BB3735",
"*  c #B43B33",
"=  c #BC3934",
"-  c #B63D3A",
";  c #BA3A38",
":  c #C23635",
">  c #C43937",
",  c #C93739",
"<  c #C43A39",
"1  c #C93D3B",
"2  c #924F34",
"3  c #9C4C36",
"4  c #935436",
"5  c #995437",
"6  c #9F5438",
"7  c #98583F",
"8  c #A34933",
"9  c #AC463E",
"0  c #A24A38",
"q  c #B44237",
"w  c #B34439",
"e  c #B9423C",
"r  c #A9523B",
"t  c #B95235",
"y  c #8D6237",
"u  c #836C36",
"i  c #85663F",
"p  c #CB423D",
"a  c #CD493B",
"s  c #CF543B",
"d  c #C35A39",
"f  c #CF5C3E",
"g  c #D0523B",
"h  c #D45C3D",
"j  c #D6613E",
"k  c #DB6B3E",
"l  c #945B40",
"z  c #B14F46",
"x  c #A95C48",
"c  c #B6554D",
"v  c #896440",
"b  c #836E41",
"n  c #956B44",
"m  c #926F49",
"M  c #837345",
"N  c #857840",
"B  c #867E4A",
"V  c #9A7953",
"C  c #A76850",
"Z  c #A77455",
"A  c #CD4542",
"S  c #D04844",
"D  c #D66341",
"F  c #DE7641",
"G  c #E17B44",
"H  c #4C9D3E",
"J  c #5B943D",
"K  c #549C3F",
"L  c #6C833B",
"P  c #658D3C",
"I  c #698E3E",
"U  c #72843C",
"Y  c #63913F",
"T  c #51A03F",
"R  c #3EB543",
"E  c #36BC45",
"W  c #3BB844",
"Q  c #3BBF4A",
"!  c #499B40",
"~  c #579643",
"^  c #549B44",
"/  c #608942",
"(  c #698D47",
")  c #768747",
"_  c #738D4A",
"`  c #7D884E",
"'  c #629C4F",
"]  c #789D5B",
"[  c #4CA242",
"{  c #45AE42",
"}  c #4DA84B",
"|  c #51A441",
" . c #5DA44C",
".. c #41B243",
"X. c #49B54D",
"o. c #43BC4E",
"O. c #4CB553",
"+. c #57B254",
"@. c #56B857",
"#. c #63A454",
"$. c #62B55C",
"%. c #68BF6B",
"&. c #1ED649",
"*. c #1BDA4A",
"=. c #2DC646",
"-. c #27CD47",
";. c #29CB47",
":. c #2DC348",
">. c #26CE49",
",. c #2CCC49",
"<. c #34C146",
"1. c #34C54D",
"2. c #30CA4D",
"3. c #23D34A",
"4. c #25D74E",
"5. c #2AD34F",
"6. c #20DB4E",
"7. c #21DB4E",
"8. c #3AC752",
"9. c #2ED151",
"0. c #23DB50",
"q. c #25DB52",
"w. c #26DC53",
"e. c #28DC54",
"r. c #2BDC57",
"t. c #2DDD58",
"y. c #2FDD5A",
"u. c #37D357",
"i. c #30DD5B",
"p. c #30DE5B",
"a. c #31DE5C",
"s. c #33DE5D",
"d. c #34DE5E",
"f. c #37DE60",
"g. c #38DF61",
"h. c #46C658",
"j. c #4BCB61",
"k. c #5AC061",
"l. c #83834C",
"z. c #9D805A",
"x. c #84945C",
"c. c #9A8B67",
"v. c #E78847",
"b. c #E78C4F",
"n. c #EB9247",
"m. c #EF9B4C",
"M. c #F09A47",
"N. c #EB9851",
"B. c #F4A84E",
"V. c #F2A254",
"C. c #F5AC50",
"Z. c #F9B552",
"A. c #FCB953",
"S. c #F6B159",
"D. c #FCBB5A",
"F. c #FBBB61",
"G. c #FCC161",
/* pixels */
"*.*.*.*.*.*.*.*.*.*.*.*.*.*.*.*.*.*.*.*.*.*.*.*.*.*.*.*.*.*.*.*.*.*.*.*.*.*.*.*.*.*.*.*.*.*.*.*.*.*.",
"*.*.*.*.*.*.*.*.*.*.*.*.*.*.*.*.*.*.*.*.*.*.*.*.*.*.*.*.*.*.*.&.*.*.*.*.*.*.*.*.*.*.*.*.*.*.*.*.*.*.",
"*.*.*.*.*.*.*.*.*.*.*.*.*.*.*.*.*.*.*.*.*.*.*.*.*.*.*.*.*.*.*.*.*.*.*.*.*.*.*.*.*.*.*.*.*.*.*.*.*.*.",
"*.*.*.*.*.*.*.*.*.*.*.*.*.*.*.*.*.*.*.*.*.*.*.*.*.*.*.*.*.*.*.*.*.*.*.*.*.*.*.*.*.*.*.*.*.*.*.*.*.*.",
"*.*.*.*.*.*.*.*.*.*.*.*.*.*.*.*.*.*.*.*.*.*.*.*.*.&.*.*.*.*.*.*.*.*.*.*.*.*.*.*.*.*.*.*.*.*.*.*.*.*.",
"*.*.*.*.*.*.*.*.*.*.*.*.*.*.*.*.*.*.*.*.*.*.*.*.*.*.*.*.*.*.&.*.*.*.*.*.*.*.*.*.*.*.*.*.*.*.*.*.*.*.",
"*.*.*.*.*.*.*.*.*.*.*.*.*.*.*.*.*.*.*.*.*.*.*.&.>.3.*.*.*.*.*.*.*.*.&.*.*.*.*.*.*.*.*.*.*.*.*.*.*.*.",
"*.*.*.*.*.*.*.*.*.*.*.*.*.*.*.*.*.*.*.*.*.*.*.3.L P *.*.*.*.*.*.*.*.*.*.*.*.*.*.*.*.*.*.*.*.*.*.*.*.",
"*.*.&.*.*.*.*.*.*.*.*.*.*.*.*.*.*.*.*.*.*.*.*.5.N @ &.*.*.*.*.*.*.*.*.*.*.*.*.*.*.*.*.*.*.*.*.*.*.&.",
"*.*.*.*.*.*.*.*.&.*.*.*.*.*.*.*.*.*.*.*.*.*.*.3.+ @ &.*.*.*.*.*.*.*.*.*.*.*.*.*.*.*.*.*.*.*.*.*.*.*.",
"*.*.*.*.*.*.*.*.*.*.*.*.*.*.*.*.*.*.*.*.*.*.*.&.@ @ &.*.*.*.*.*.*.&.*.*.*.*.*.*.*.*.*.*.*.*.*.*.*.*.",
"*.*.*.*.*.*.*.*.*.*.*.*.*.*.*.*.*.*.*.*.*.*.*.3.@ @ &.*.*.*.*.*.*.*.*.*.*.*.*.*.*.*.*.*.*.*.*.*.*.*.",
"*.*.*.*.*.*.*.*.*.*.*.*.*.*.*.*.*.*.*.*.*.*.*.,.u O -.*.*.*.*.*.*.*.*.*.*.*.*.*.*.*.*.*.*.*.*.*.*.*.",
"*.*.*.*.*.*.*.*.*.*.*.*.*.*.*.*.*.*.*.*.*.*.*.W u O E *.*.*.*.*.*.*.*.*.*.*.*.*.*.*.*.*.*.*.*.*.*.*.",
"*.*.*.*.*.*.*.*.*.*.*.*.*.*.*.*.*.*.*.*.*.*.*.| P P K *.*.*.*.*.*.*.*.*.*.*.*.*.*.*.*.*.*.*.*.*.*.*.",
"*.*.*.*.*.&.&.*.*.*.*.*.*.*.*.*.*.*.*.*.*.*.*.I { ..L &.*.*.*.*.*.*.*.*.*.*.*.*.*.&.*.*.*.*.*.*.*.*.",
"*.*.*.*.*.e.s.*.*.*.*.*.*.*.*.*.*.*.*.*.*.*.-.U =.<.U 3.*.*.*.*.*.*.*.*.*.*.*.*.*.*.*.*.*.*.*.*.*.*.",
"*.*.*.*.*.*.f.*.*.*.*.*.*.*.*.*.*.*.*.*.*.*.W U 3.-.@ <.*.*.*.*.*.*.*.e.d.*.*.*.*.*.*.*.*.*.*.*.*.*.",
"*.*.*.*.*.*.s.r.*.*.*.*.*.*.*.*.*.*.*.*.*.*.K J *.*.P T *.*.*.*.*.*.*.s.r.*.*.*.*.*.*.*.*.*.*.*.*.*.",
"*.*.*.*.*.*.w.f.*.*.*.*.*.*.*.*.*.*.*.*.*.3.U H *.*.R P *.*.*.*.*.*.*.g.*.*.*.*.*.*.*.*.*.*.*.*.*.*.",
"*.*.*.*.*.*.*.g.6.*.*.*.*.*.6.s.*.*.*.*.*.E O =.*.*.-.L =.*.*.*.*.*.7.f.*.*.*.*.*.*.*.*.*.6.*.*.*.*.",
"*.*.*.*.*.*.*.t.r.*.*.*.*.*.*.g.&.*.*.*.*.K P &.*.*.*.J T *.*.*.*.*.r.y.*.*.*.*.*.*.*.*.r.r.*.*.*.*.",
"*.*.*.*.*.*.*.*.r.*.*.*.*.*.*.f.*.*.*.*.3.@ R *.*.*.*.R L &.*.*.*.*.s.e.*.*.*.*.*.*.*.0.s.7.*.*.*.*.",
"*.*.*.*.*.*.*.*.*.*.*.*.*.*.*.s.w.*.*.*.R o 3.*.*.*.*.;.# W *.*.*.*.f.*.*.*.*.*.*.*.*.t.r.*.*.*.*.*.",
"*.*.*.*.*.*.*.*.*.7.*.*.*.*.*.t.w.*.*.*.P K *.*.*.*.*.*.P Y *.*.*.*.f.*.*.*.*.*.*.*.&.f.*.*.*.*.*.*.",
"*.*.*.*.*.*.&.*.*.*.*.*.*.*.*.w.s.*.*.<.O <.*.*.*.*.*.*.W # ;.*.*.s.t.*.*.t.r.*.*.*.t.r.*.*.*.*.*.*.",
"*.*.*.*.&.&.0.*.*.*.*.*.*.*.*.&.s.*.*.K L 3.*.*.*.*.*.*.*.L T *.*.s.0.*.*.f.0.*.*.0.f.&.*.*.*.*.*.*.",
"*.7.t.*.*.*.d.w.*.*.*.*.*.7.r.w.7.*.-.U H *.*.*.*.*.*.*.*.T O -.*.*.*.*.w.*.*.*.*.t.q.*.*.*.*.*.*.*.",
"*.*.r.s.*.*.0.s.*.*.*.*.@.l.Z z.$.7...O 3.*.*.*.*.*.*.*.*.3.@ T *.1.) Z V  .4.*.0.f.*.*.*.*.*.*.*.*.",
"*.*.*.r.t.*.*.*.*.*.*. .A , 1 > q L o P *.*.*.*.*.*.*.*.*.*.T u J 5 > , 1 ; B 9.*.0.*.*.*.*.*.*.*.*.",
"*.*.*.*.t.t.*.*.*.*.R 9 1 p A A > 8 y M ' H 3.*.*.*.*.3.$.] L y 5 = p A A p < _ *.*.*.*.*.*.*.*.*.*.",
"*.*.*.*.*.t.r.*.*.*.u 1 A A A p > 8 4 $ : e y h.*.*.3.) p > % 2 5 = p A A A < 9 Q *.*.*.*.*.*.*.*.*.",
"*.*.*.*.*.&.t.r.*.E w A A A 1 p s d * < A A , n 4.*.^ & p p < * t f a 1 A A A < _ *.*.*.7.7.*.*.*.*.",
"*.*.*.*.*.*.&.r.*.( < A A A a b.D.S.D 1 A A 1 - o.*.y 1 p A p a V.F.N.s p S A 1 v 4.*.7.d.7.*.*.*.*.",
"*.*.*.*.*.*.*.*.*.M < A A p F G.D.F.v.1 p A p < +.,.r A A A 1 D G.D.G.N.a p S 1 3 ,.*.p.0.*.*.*.*.*.",
"*.*.*.*.*.*.*.*.7.  1 A A a N.D.D.G.G , p A 1 z o.4.x , A A p D F.D.D.S.a p S 1 0 2.*.*.*.*.*.*.*.*.",
"*.*.*.*.*.*.*.*.*.X < A A p m.A.A.S.D 1 A A 1 C 9.*.l.1 A A p a V.D.A.Z.s 1 S , 4 >.*.*.*.*.*.*.*.*.",
"*.*.*.*.*.*.*.*.*.~ & A A a M.A.Z.G 1 A A A < x.6.*.X.w p S A p j C.A.B.s p S , b *.*.*.*.*.*.*.*.*.",
"*.*.*.*.*.*.*.*.*.8.9 1 A p k B.D a A A A < C u.*.*.*.` > A A A p h n.n.a A 1 ; #.*.*.*.*.*.*.*.*.*.",
"*.*.*.*.*.*.*.*.*.&./ * p p a a 1 A A A < c k.*.*.*.*.9.m < p A A A p a A A , i 9.*.*.*.*.*.*.*.*.*.",
"*.*.*.*.*.*.*.*.*.*.&.[ 0 > p A A A 1 ; c %.6.*.*.*.*.*.8.M & < p A A 1 < ; v ,.*.*.*.*.*.*.*.*.*.*.",
"*.*.*.*.*.*.*.*.*.*.*.*.,.. 3 = * - z c.j.*.*.*.*.*.*.*.*.4.' 7 - & & z l ^ >.*.*.*.*.*.*.*.*.*.*.*.",
"*.*.*.*.*.*.*.*.*.*.*.*.*.*.:.! H } h.r.*.*.*.*.*.*.*.*.*.*.*.5.O.~ ! O.9.*.*.*.*.*.*.*.*.*.*.*.*.*.",
"*.*.*.*.*.*.*.*.*.*.*.*.*.*.*.*.*.*.*.*.*.*.*.*.*.*.*.*.*.*.*.*.*.*.*.*.*.*.*.*.*.*.*.*.*.*.*.*.*.*.",
"*.*.*.*.*.*.*.*.*.*.*.*.*.*.*.*.*.*.*.*.*.*.*.*.*.*.*.*.*.*.*.&.*.*.*.*.*.*.*.*.*.*.*.*.*.*.*.*.*.*.",
"*.*.*.*.*.*.*.*.*.*.*.*.*.*.*.*.*.*.*.*.*.*.*.*.*.*.*.*.*.*.*.*.*.*.*.*.*.*.*.*.*.*.*.*.*.*.*.*.*.*.",
"*.*.*.*.*.*.*.*.*.*.*.*.*.*.*.*.*.*.*.*.*.*.*.*.*.*.*.*.*.*.*.*.*.*.*.*.*.*.*.*.*.*.*.*.*.*.*.*.*.*.",
"*.*.*.*.*.*.*.*.*.*.*.*.*.*.*.*.*.*.*.*.*.*.*.*.*.*.*.*.*.*.*.*.*.*.*.*.*.*.*.*.*.*.*.*.*.*.*.*.*.*.",
"*.*.*.*.*.*.*.*.*.*.*.*.*.*.*.*.*.*.*.*.*.*.*.*.*.*.*.*.*.*.&.*.*.*.*.*.*.*.*.*.*.*.*.*.*.*.*.*.*.*.",
"*.*.*.*.*.*.*.*.*.*.*.*.*.*.*.*.*.*.*.*.*.*.*.*.*.*.*.*.*.*.*.*.*.*.*.*.*.*.*.*.*.*.*.*.*.*.*.*.*.*."
};
