/* XPM */
static char *faa4d3e90bbb4fe68da0978da7090472sVaPoH5UNyPCalGS[] = {
/* columns rows colors chars-per-pixel */
"50 50 200 2 ",
"   c #0E0E0E",
".  c #120F0E",
"X  c #15110E",
"o  c #1B130E",
"O  c #0E0F10",
"+  c #0F1010",
"@  c #131313",
"#  c #1B1410",
"$  c #1C1C1C",
"%  c #22160F",
"&  c #2A180F",
"*  c #321B0F",
"=  c #261810",
"-  c #331D11",
";  c #3C1F10",
":  c #2C251D",
">  c #3C2212",
",  c #232323",
"<  c #2D2822",
"1  c #2C2C2C",
"2  c #343029",
"3  c #3C362E",
"4  c #3E3730",
"5  c #452412",
"6  c #4D2914",
"7  c #582D12",
"8  c #5B3519",
"9  c #693616",
"0  c #66391A",
"q  c #763A15",
"w  c #79441E",
"e  c #6D482E",
"r  c #775E3F",
"t  c #775E41",
"y  c #7D6444",
"u  c #7C6F45",
"i  c #6A7B44",
"p  c #797246",
"a  c #727C46",
"s  c #767B4A",
"d  c #843C15",
"f  c #854519",
"g  c #8B4A1C",
"h  c #934618",
"j  c #944B1A",
"k  c #9B4E1B",
"l  c #9E521E",
"z  c #A4571E",
"x  c #975726",
"c  c #885430",
"v  c #9A5E31",
"b  c #A45621",
"n  c #A55B23",
"m  c #AA5E24",
"M  c #95623B",
"N  c #A66127",
"B  c #AA6126",
"V  c #AC6429",
"C  c #AF682A",
"Z  c #B0662B",
"A  c #B46C2D",
"S  c #B7702F",
"D  c #BA732F",
"F  c #AE6E35",
"G  c #A9723C",
"H  c #B67235",
"J  c #BB7532",
"K  c #BE7934",
"L  c #B6783A",
"P  c #BC7C3C",
"I  c #C07A32",
"U  c #816645",
"Y  c #846847",
"T  c #866A49",
"R  c #886B4C",
"E  c #996B49",
"W  c #84744C",
"Q  c #896E51",
"!  c #8B7652",
"~  c #987A59",
"^  c #A97947",
"/  c #B67C44",
"(  c #A57A56",
")  c #36BE4B",
"_  c #59984A",
"`  c #6B8447",
"'  c #688749",
"]  c #45B24D",
"[  c #51AF54",
"{  c #6BBE68",
"}  c #74B569",
"|  c #17DA47",
" . c #18D947",
".. c #1FD64A",
"X. c #1BDA4A",
"o. c #28CA49",
"O. c #2CCA4C",
"+. c #32C54D",
"@. c #23D44B",
"#. c #29D34F",
"$. c #21D94D",
"%. c #35CE53",
"&. c #2BD550",
"*. c #26D951",
"=. c #2BD954",
"-. c #32D454",
";. c #38D65A",
":. c #3FDA61",
">. c #48CD5D",
",. c #42D25B",
"<. c #5AC463",
"1. c #46D461",
"2. c #43D962",
"3. c #53D46A",
"4. c #6BC26B",
"5. c #63CC6E",
"6. c #6CCE75",
"7. c #7AC477",
"8. c #66D576",
"9. c #70D57B",
"0. c #BE813F",
"q. c #C2823F",
"w. c #BD8347",
"e. c #AD8257",
"r. c #B78856",
"t. c #BA8855",
"y. c #B2885C",
"u. c #9D8264",
"i. c #889161",
"p. c #A78A69",
"a. c #B58E62",
"s. c #AF906D",
"d. c #BD9264",
"f. c #BB956C",
"g. c #AA8F70",
"h. c #AD9475",
"j. c #A49F78",
"k. c #B79976",
"l. c #B49C7E",
"z. c #8DAF75",
"x. c #99AC79",
"c. c #8BBA7B",
"v. c #B5A07F",
"b. c #C48441",
"n. c #C2874A",
"m. c #C08C56",
"M. c #C29769",
"N. c #C99E70",
"B. c #89C07C",
"V. c #7ECE80",
"C. c #B69F82",
"Z. c #B99F82",
"A. c #9FB684",
"S. c #AFAC85",
"D. c #B7A183",
"F. c #BBA385",
"G. c #BDA689",
"H. c #BEA98C",
"J. c #ADB98B",
"K. c #B3B38B",
"L. c #C7A884",
"P. c #C0A68B",
"I. c #C1AB8E",
"U. c #C3AD92",
"Y. c #C6B296",
"T. c #C9B395",
"R. c #C7B499",
"E. c #C9B59B",
"W. c #C4BB9B",
"Q. c #CCB99E",
"!. c #D2BB9D",
"~. c #CEBBA1",
"^. c #D1BDA4",
"/. c #D4BEA8",
"(. c #93CA89",
"). c #97C98C",
"_. c #88D18B",
"`. c #97D494",
"'. c #A4CC96",
"]. c #ADC999",
"[. c #B8C39C",
"{. c #B9CBA3",
"}. c #B6D2A5",
"|. c #C5C09F",
" X c #C9C5A7",
".X c #D2C1A7",
"XX c #D4C3AB",
"oX c #D7C9AF",
"OX c #D9C8AE",
"+X c #C7D1AE",
"@X c #DAC6B3",
"#X c #D7C9B0",
"$X c #DACBB3",
"%X c #DDCFB8",
"&X c #CED1B4",
"*X c #D3D1B7",
"=X c #DFD0BB",
"-X c #E1CFBB",
";X c #E1D0BD",
":X c #E3D2C0",
/* pixels */
"X.X.X.X.X.X.X.X.X.X.X.X.X.X.X.X.X.X.X.X.X.X.X.X.X.X.X.X.X.X.X.X.X.X.X.X.X.X.X.X.X.X.X.X.X.$.X.X.X.X.",
"X.X.X.X.X.X.X.X.X.X.X.X.X.X.X.X.X.X.X.X.X.X.X.X.X.X.X.X.X.X.X.X.X.X.X.X.X.X.X.X.X.X.X.X.X.X.X.X.X.X.",
"X.X.X.X.X.X.X.X.X.X.X.X.X.X.X.X.X.X.X.X.X.X.X.X.X.X.X.X.X.X.X.X.X.X.X.X.X.X.X.X.X.X.X.X.X.X.X.X.X.X.",
"X.X.X.X.X.X.X.X.X.X.X.X.X.X.X.X.X.X.X.X.X.X.X.X.X.X.X. .X.*.=.$. .X.X.X.X.X.X.X.X.X.X.X.X.X.X.X.X.X.",
"X.X.X.X.X.X.X.X.X.X.X.X.X.X.X.| X.X.*.=.-.=.*.X.X.*.:.9.`.}.].].6.#.X.X.X.X.X.X.X.X.X.X.X.X.X.X.X.X.",
"X.X.X.X.X.X.X.X.X.X.X.X.X.X.| *.:.9.`.}.&X{.].`.`.}.+X%X%X%X$XOX~.A.-.X.....X.X.X.X.X.X.X.X.X.X.X.X.",
"X.X.X.X.X.X.X.X.X.X.X.| X.;.9.}.*X:X-X:X:X=X=X-X%X;X=X=X=X%X#XOXE.U.c.5.'.6.$.X.X.X.X.X.X.X.X.X.X.X.",
"X.X.X.X.X.X.X.X.X.X.| ;.`.*X:X:X:X*X$X$X%X%X%X$X$X%X#XOXOX~.R.U.U.U.H.~.OXW.;.X.X.X.X.X.X.X.X.X.X.X.",
"X.$.X.X.X.X.X.X.X.X.1.}.-X;X;X=X%X#XOXoX$X$X$X$X$X$X XR.U.P.D.h.G.G.G.U.OXE.,. .X.X.X.X.X.X.X.X.X.X.",
"X.X.X.X.X.X.X.X.X.;.[.OX$X@XXX^.~.~.Q..XoXoXoX$XoXoXXXH.Z.D.v.g.h.F.G.G.~..X3.| X.X.X.X.X.X.X.X.X.X.",
"X.X.X.X.X.X.X.X. .(.XXXX~.R.E.~.R.R.!.oX$X$XOXOXXXXXQ.l.l.l.h.p.p.s.l.F.R..X].=.X.X.X.X.X.X.X.X.X.X.",
"X.X.X.X.X.X.X.X.,.Y.R.R.R.U.U.U.G.D.E..X.X|.Q.T.I.L.L.a.y.e.^ G G F y.l.H.Q.#X_.X.X.X.X.X.X.X.X.$.X.",
"X.X.X.X.X.X.X.X.} R.U.U.G.C.k.h.a.a.f.d.M.m.m.m.n.n.n.q.0.0.J A A V e.h.H.R.^. X3.X.X.X.X.X.X.X.X.X.",
"X.X.X.X.X.X.X.X.c.U.U.Z.( / / P w.b.b.b.b.b.b.b.q.b.q.b.0.J A C B m ( h.G.H.~.~. X3.X.X.X.X.X.X.X.X.",
"X.X.X.X.X.X.X.X.{ G.U.C.M A A J q.b.b.b.q.q.b.I q.0.P L J Z C C m m E C.H.H.R.~.@X{.2.X.X.X.X.X.X.X.",
"X.X.X.X.X.X.X.X.%.j.l.h.E m Z A L L L J L H L H H H A B N m b l k h E H.H.R.H.~./.@X).X.X.X.X.X.X.X.",
"X.X.X.X.X.X.X.$.7.v.l.l.E x N N m A A Z Z V m b b l k j d 9 q d f f ( T.P.F.P.F.E.@X'.X.X.X.X.X.X.X.",
"X.X.X.X.X.X.| 3. XI.l.l.c j j j f q q 9 9 7 7 6 5 ; * % @ O 6 d m A ( F.U.E.XX!.W./._.X.X.X.X.X.X.X.",
"X.X.X.X.X.X.$.'.OXXX~.E.~ g f w * . O O           . . @ . O ; k B D / Y.OX-X%X%X=XXX5.X.X.X.X.X.X.X.",
"X.X.X.X.X.| ;. XXX.X^.!.t.B N x & O + @ @ @ @ @ @ @ @ @ @ . ; k B D r..X.XXX.X.XXX=X8. .X.X.X.X.X.X.",
"X.X.X.X.X. .3.E.^.R.Y.G./ C N g % + @ $ $ $ $ $ $ $ $ $ @ O & j B D n.^.XX.X^.~.~.^.).X.X.X.X.X.X.X.",
"X.X.X.X.X.#.J.U.Y.I.G.G.w.A N f # + @ $ $ $ $ $ , , , , @ @ % j m J w.Q..X.XQ.R.E.^.).X.X.X.X.X.X.X.",
"X...X.X. .<.H.G.H.H.I.v.L S N w . . @ $ , , 1 1 1 1 1 , $ O # f b J I T.!.~.Q.Y.Q.~.].&.X.X.X.X.X.X.",
"X.X.X.X.X.{ P.I.U.U.E.f.J D N w . @ @ $ , 1 1 1 1 1 1 , @ @ # d m J I I.E.Q.Q.^.^.Q.E.,.X.X.X.X.X.X.",
"X.X.X.X. .{ G.F.l.H.W.f.H J N w + + @ $ < 1 1 1 1 1 1 , $ @ . q m S K k.R.R.Q.Q.^.E.E.5.X.X.X.X.X.X.",
"X.X.X...X.<.g.p.p.p.l.a.D H N 0 . + $ $ , 1 1 1 1 1 1 1 $ O   9 z S K M.Y.I.P.Y.U.U.U.4.| X.X.X.X.$.",
"X.X.X.X.1.[.R.U.H.H.s.e.K S N 8 O + $ $ 1 1 1 1 1 1 1 , $ @   7 b S K M.Y.R.R.E.U.G.I.4.| X.X.X.X.X.",
"X.X.X.X.).XXXXXXXXoXG.^ K A N 6 O @ @ $ 1 1 1 1 1 1 1 1 @ @   5 b S J t.I.I.I.E.E.F.U.4.X.X.X.X.X.X.",
"X.X.| ;. XXXXXXXXX.XF.G I A n > O @ $ $ 1 1 1 1 1 1 1 , $ @   * x S I w.G.D.l.l.h.g.Z.{ | X.X.X.X.X.",
"X.X.| 5.$XOXXXQ.R.I.v.L J A v -   + $ = 1 1 1 1 1 1 1 1 $ @   & k A I P F.H.Y.~.E.U.I.c.X.X.X.X.X.X.",
"X.X.X.B.Q.E.H.G.Y.I.k.L I A x # O @ $ , 1 1 1 1 1 1 1 1 $ @   o j A D n.~.XXXXXXXXXXOXJ.&.X.X.X.X.X.",
"X.X.#.A.U.Y.G.H.R.F.p.J J A f @ O O $ , 1 1 1 1 1 1 1 1 $ @ . . q A J 0.!.XXXX.XXXXXXXW.>.| X.X.X.X.",
"X.X.=.J.E.R.U.I.H.h.~ K J A w   + @ $ , 1 1 1 1 1 1 1 1 $ @ @ X 9 V J K L.~.~.R.R.~.^.~.c.O.X.X.X.X.",
"X.| &.x.I.H.F.l.l.C.f.I D Z 0   + $ $ , 1 1 1 1 1 1 1 1 , @ +   7 m H K e.C.E.XX~.G.H.H.G.A.#.X.X.X.",
"..3.(.[.^./.^.^./.@XL.I S N 6   @ @ $ $ 1 1 1 1 1 1 1 1 $ @ +   5 z A K d.~.^.XXXXR.G.G.H.Z.>...X.X.",
"-.{./.~.~.~.~.~.~.XXN.J A x >   + $ $ , 1 1 1 1 1 1 1 1 , @ + O ; k A D M.~.E.!.^.~.~.H.Z.C.<. .X.X.",
",.W.E.Y.Y.Y.R.R.Y.Y.f.d.t.x > + + $ $ , 1 1 1 1 1 1 1 1 , $     * j B D m.E.R.Q.R.R.~.~.~.~.A.*.X.X.",
"%.K.U.T.U.I.P.I.I.H.^.oXR.x = + + $ $ , 1 1 1 1 1 1 1 1 , $ @ O % f z D n.Y.R.R.R.R.U.R.R.~.XXV.X.X.",
"-.S.I.F.P.I.I.U.I.Y..X~.k.c # @ @ $ $ , 1 1 1 1 1 1 1 1 , $ +   o f z C / Z.P.P.H.U.H.H.H.R.~.A.X.X.",
"%.S.P.P.G.I.I.I.l.H.Y.P.e.w @ @ @ $ $ 1 1 1 1 1 1 1 1 1 , @ + O X q v a.L.Y.E.E.U.U.U.U.U.H.G.x.*.X.",
"o.z.Z.P.P.U.U.U.v.P.G.h.M w @ @ + $ $ , 1 1 1 1 1 1 < 1 , $ @ O O 9 ( E.Q.Q.Q.Q.E.U.H.I.U.P.P.} X.X.",
" .+.i.g.h.h.h.h.g.D.D.u.( Q < < : : < 2 2 3 3 4 3 3 4 3 3 2 : : < 0 v C.U.U.Y.F.C.I.G.G.G.G.z.#.X.X.",
"X. .+._ i.W Q T T Q ~ R y t Q T r y y y y y y y y y U U U U y U U e e ! u.u.u.~ ~ g.~ U Q Q ] X.X.X.",
"X.X.X.X.o.) ) ) _ s u U U T Y Y T T U Y T T T Y T T T Y T T T T W p a i ` i a p p s s u p s ) ..X.X.",
"X.X.X.X.X.X.X.X.X.@.%.] ] _ _ ` a ` a a ` ` ` ` ` ' ' _ [ [ ] ) +.O.#.X.$.@.@.O.o.o.o.O.+.o.X.X.X.X.",
"X.X.X.X.X.X.X.X.X.X.X.X.X.X.X.X.@.@...@.@.X.$.X.@.X.X.| X.X...X.X.X.X.X.X.X.X.X.X.X. .X. .X.X.X.X.$.",
"X.X.X.X.X.X.X.X.X.X.X.X.X.X.X.X.X.X.X.X...X.X.X.X.X.X.X.X.X.X.X.X.X.X.X.X.X.X.X.X.X.X.X.X.X.X.X.X.X.",
"X.X.X.X.X.X.X.X.X.X.X.X.X.X.X.X.X.X.X.X.X.X.X.X.X.X.X.X.X.X.X.X.X.X.X.X.X.X.X.X.X.X.X.X.X.X.X.X.X.X.",
"X.X.X.X.X.X.X.X.X.X.X.X.X.X.X.X.X.X.X.X.X.X.X.X.X.X.X.X.X.X.X.X.X.X.X.X.X.X.X.X.X.X.X.X.X.X.X.X.X.X.",
"..X.X.X.X.X.X.X.X.X.X.X.X.X.X.X.X.X.X.X.X.X.X.X.X.X.X.X.X.X.X.X.X.X.X.X.X.X.X.X.X.X.X.X.X.X.X.X.X.X."
};
