/* XPM */
static char *_095f1bd73b94ec5845e8ca176b63e67KGbCm4Qa3X85ATGA[] = {
/* columns rows colors chars-per-pixel */
"50 50 209 2 ",
"   c #1A383E",
".  c #232E32",
"X  c #273733",
"o  c #3B3B3C",
"O  c #323332",
"+  c #2E2C2F",
"@  c #423C3F",
"#  c #4A363F",
"$  c #412833",
"%  c #3E423E",
"&  c #263A47",
"*  c #3F3E44",
"=  c #442F42",
"-  c #493C45",
";  c #5B3449",
":  c #78385A",
">  c #6E3C59",
",  c #264B56",
"<  c #3C5242",
"1  c #325A65",
"2  c #1B6778",
"3  c #454344",
"4  c #4B4B4C",
"5  c #484849",
"6  c #52434F",
"7  c #4B524D",
"8  c #465348",
"9  c #4F4D52",
"0  c #524C51",
"q  c #574451",
"w  c #4F5D51",
"e  c #5A5358",
"r  c #57514E",
"t  c #6B4D5E",
"y  c #6D435A",
"u  c #74445D",
"i  c #7A425E",
"p  c #64505C",
"a  c #486653",
"s  c #57675B",
"d  c #4B7857",
"f  c #4A684D",
"g  c #405F64",
"h  c #734B63",
"j  c #6B5264",
"k  c #685663",
"l  c #735566",
"z  c #5F6362",
"x  c #5B7160",
"c  c #636061",
"v  c #676C69",
"b  c #79616F",
"n  c #657369",
"m  c #68706A",
"M  c #79756B",
"N  c #737073",
"B  c #853B5E",
"V  c #8B3C63",
"C  c #973B6B",
"Z  c #A33B71",
"A  c #A93775",
"S  c #B53A7B",
"D  c #C33B7F",
"F  c #874567",
"G  c #82536F",
"H  c #954B73",
"J  c #9C4771",
"K  c #8D5673",
"L  c #9A5A7C",
"P  c #925C79",
"I  c #934970",
"U  c #A34575",
"Y  c #A94278",
"T  c #B5437C",
"R  c #A4597D",
"E  c #8D6879",
"W  c #A2647C",
"Q  c #0BDB3E",
"!  c #09E23F",
"~  c #348150",
"^  c #2B8944",
"/  c #2EB24F",
"(  c #3DB558",
")  c #36B255",
"_  c #438152",
"`  c #419C57",
"'  c #449959",
"]  c #44A75C",
"[  c #43BD5E",
"{  c #5C8264",
"}  c #559264",
"|  c #519C64",
" . c #4A9D61",
".. c #659B73",
"X. c #7A9577",
"o. c #6C896C",
"O. c #4CAA63",
"+. c #52A968",
"@. c #46B160",
"#. c #5AB971",
"$. c #5AB16F",
"%. c #66AA76",
"&. c #71B37B",
"*. c #0DDC40",
"=. c #15DB46",
"-. c #18D947",
";. c #1DD74B",
":. c #17DD48",
">. c #1BDA4A",
",. c #19D747",
"<. c #1FDF51",
"1. c #26C74D",
"2. c #22D54D",
"3. c #20DB4E",
"4. c #2DC953",
"5. c #35CA59",
"6. c #24DD51",
"7. c #2BDA56",
"8. c #2FD559",
"9. c #2DDB59",
"0. c #2BD655",
"q. c #33D55B",
"w. c #32DC5C",
"e. c #39D35B",
"r. c #0EE344",
"t. c #09E642",
"y. c #13E246",
"u. c #16E349",
"i. c #1AE24B",
"p. c #16EC4A",
"a. c #1EE450",
"s. c #23E353",
"d. c #29E157",
"f. c #2DF85E",
"g. c #3BD962",
"h. c #4BCD6A",
"j. c #49C866",
"k. c #50CD6D",
"l. c #45D668",
"z. c #59C472",
"x. c #62C87A",
"c. c #858077",
"v. c #809B7C",
"b. c #2B7B89",
"n. c #C83884",
"m. c #D43D8A",
"M. c #DC3B8C",
"N. c #D13C86",
"B. c #F33F98",
"V. c #9B5D80",
"C. c #BA4882",
"Z. c #BA5988",
"A. c #AB5285",
"S. c #A86B8A",
"D. c #B5658F",
"F. c #AE6D8C",
"G. c #C34585",
"H. c #CB5893",
"J. c #D24188",
"K. c #EC489C",
"L. c #F9439E",
"P. c #F3439C",
"I. c #C66A98",
"U. c #C57099",
"Y. c #FD4AA5",
"T. c #F84AA4",
"R. c #FE54AD",
"E. c #FF59AF",
"W. c #F859AB",
"Q. c #FF55B3",
"!. c #FF5DB1",
"~. c #CA78A2",
"^. c #D876A8",
"/. c #DA6BA5",
"(. c #E96EAE",
"). c #E669AE",
"_. c #E371A9",
"`. c #F072AF",
"'. c #FF60B3",
"]. c #FC6DB6",
"[. c #FE6CBA",
"{. c #F469B6",
"}. c #ED72B1",
"|. c #FD71B7",
" X c #FD72BA",
".X c #F273B2",
"XX c #FF73C0",
"oX c #0F96B9",
"OX c #3FA0B0",
"+X c #7CA984",
"@X c #79B684",
"#X c #74AFBD",
"$X c #6CC380",
"%X c #17A5CA",
"&X c #22BFE7",
"*X c #38C7E7",
"=X c #20C6F0",
"-X c #988585",
";X c #979887",
":X c #879486",
">X c #BB8A9E",
",X c #AE9497",
"<X c #A28087",
"1X c #98AF95",
"2X c #C987A4",
"3X c #C194A8",
"4X c #B7DFE7",
"5X c #95F1FF",
"6X c #91E8FA",
/* pixels */
">.>.>.>.>.>.>.>.>.>.>.>.>.>.>.>.>.>.>.>.>.>.>.>.>.>.>.>.>.>.>.>.>.>.>.>.>.>.>.>.>.>.>.>.>.>.>.>.>.>.",
">.>.>.>.>.>.>.>.>.>.>.>.>.>.>.>.>.>.>.>.>.>.>.>.>.>.:.>.>.>.>.>.>.>.>.>.>.>.>.>.>.>.>.>.>.>.>.>.>.>.",
">.>.>.>.>.>.>.>.>.>.>.>.>.>.>.>.>.>.>.>.>.>.>.>.>.>.>.>.>.>.>.>.>.>.>.>.>.>.>.>.>.>.>.>.>.>.>.>.>.:.",
">.>.>.>.>.>.>.>.>.>.>.>.>.>.>.>.>.>.>.>.>.>.>.>.>.>.>.>.>.>.>.>.>.>.>.>.>.>.>.>.>.>.>.>.>.>.>.>.>.>.",
">.>.>.>.>.>.>.>.>.>.>.>.>.>.>.>.>.>.>.>.>.>.>.>.>.>.>.>.>.>.>.>.>.>.>.>.>.>.>.>.>.>.>.>.>.>.>.>.>.>.",
">.>.>.>.>.>.>.>.>.>.>.>.>.>.>.>.>.>.>.>.>.>.>.>.>.>.>.>.>.>.>.>.>.>.>.>.>.>.>.>.>.>.>.>.>.>.>.>.>.>.",
">.>.>.>.>.>.>.>.>.>.>.>.>.>.>.>.>.>.>.>.>.>.>.>.>.>.>.>.>.>.>.>.>.>.>.>.>.>.>.>.>.>.>.>.>.>.>.>.>.>.",
">.>.>.>.>.>.>.>.>.>.>.>.>.>.>.>.>.>.>.>.>.>.>.>.>.>.>.>.>.>.>.>.>.>.>.>.>.>.>.>.>.>.>.>.>.>.>.>.>.>.",
">.>.>.>.>.>.>.>.>.>.>.>.>.>.>.>.>.>.>.>.>.>.>.>.>.>.>.>.>.>.>.>.>.>.>.>.>.>.>.>.>.>.>.>.>.>.>.>.>.>.",
">.>.>.>.>.>.>.>.>.>.>.>.>.>.>.>.>.>.>.>.>.>.>.>.>.>.>.>.>.>.>.>.>.>.>.>.>.>.>.>.>.>.>.>.>.>.>.>.>.>.",
">.>.>.>.>.>.>.>.>.>.>.>.>.>.>.>.>.>.>.>.>.>.>.>.>.>.>.>.>.>.>.>.>.>.>.>.>.>.>.;.>.>.>.>.>.>.>.>.>.>.",
">.>.>.>.>.>.>.>.>.;.;.>.;.;.>.>.>.>.>.>.>.>.>.>.>.>.>.>.>.>.>.>.>.;.>.;.>.>.>.,.;.>.>.>.>.>.>.>.>.>.",
">.>.>.>.>.>.>.:.=.u.a.i.u.u.u.u.:.>.;.>.>.>.>.>.>.>.>.>.>.>.>.>.;.-.>.u.u.i.i.i.u.y.=.>.;.>.>.>.>.>.",
">.>.>.>.;.:.u.9.z.%...} ~ O.O.4.7.i.u.>.;.;.>.>.>.>.>.>.>.>.>.u.u.6.4.( O.} } | +.#.w.u.:.;.>.>.>.>.",
">.>.>.>.u.9.+.n l j j j l j k e n } 1.>.u.:.>.>.>.>.>.>.>.i.>.1.] n z p j j j j j k v  .5.a.>.;.>.>.",
">.>.>.u./ m I U C.J.M.M.J.m.C.J t e k x ' 8.>.>.>.>.>.>.a./ d c e p I T n.M.M.M.m.G.Y I b $.a.:.;.>.",
";.,.i.| J n.K.R.E.!.!.'.'.Q.Q.Y.U 8 0 v ..l.=.>.>.>.>.:.g.+.s 0 8 F T.R.Q.'.'.'.!.E.R.L.J.Y o.s.:.>.",
"-.0.X.n.P.W.{.{.]. X X X X X^.l 4 7 - +Xf.*.;.,.>.>.>.>.,.p.q.5 4 4 h U. X X X|.|.|.].).W.T.n.E 8.:.",
">.X.Z.,X@Xh.h.@X>X].[.[. XW q y u q o ; { g.p.>.;.>.,.>.a./ 8 $ 3 u u 6 K `. X].[.^.&.5.l.@.v.S.o.>.",
"6.l.d.u.r.y.:.t.l.^.[..Xl > n.P.L.V d M : 8 #.s.u.i.u.6.^ - H 8 F B.L.J.: h _. X_.x.t.:.=.=.y.u.2.>.",
"-.=.:.,.;.>.;.;.:.,X XG V K.E.].[.G.a ( Z.: o x ` ' ( < = G.M ~ Y [.].E.T.Z h }.2X>.,.>.>.>.2.>.>.>.",
">.>.>.;.>.>.>.;.*.;XA.Z R.[.[.]. XP 6 ` M K.y * - 6 - - T H._ a l  X].].[.E.S H >X;.>.>.>.>.>.>.>.>.",
">.>.>.>.>.>.>.:.p.E D W.[. X[.[.^.0 4 s ) Z.i - 3 o - 3 T u a 0 5 I. X[.].[.'.J.S.6.:.>.>.>.>.>.>.>.",
">.>.>.>.>.>.>.:.7.S./.3X2X_.]. XG V D h a 3 , & + O & , < 3 k D C t }.[.).;XX.S.D.e.:.,.>.>.>.>.>.>.",
">.>.>.>.>.>.>.:.9.k.w.d.s.@X[.D.C T.Q.T o 1 *X4X5 . oX6X:XO J Q.R.Z L [.&.*.y.y.q.8.:.>.>.>.>.>.>.>.",
">.>.>.>.>.>.>.>.:.:.:.>.Q l.~.A T. X XH.O b.*X5X1   &X6X#X. R  X[.R.S D.e.>.3.>.:.=.>.>.>.>.>.>.>.>.",
">.>.>.>.>.>.>.>.>.>.>.;.u.1.W -X+X~.[.L B 1 *X%X& O OX=X2 : H .X_.1XX.L ( y.>.>.>.;.>.>.>.>.>.>.>.>.",
">.>.>.>.>.>.>.>.>.>.>.>.u.#.@Xa.t.j.U.A ).t ,   : J . , 6 /.C.H.1Xr.r.[ %.y.;.>.>.>.>.>.>.>.>.>.>.>.",
">.>.>.>.>.>.>.>.>.>.>.>.:.l.s.=.2.r.X.S.k.l.f @ - = o 0 $Xl.-XS.w.:.>.u.>.>.>.>.>.>.>.>.>.>.>.>.>.>.",
">.>.>.>.>.>.>.>.>.>.>.>.>.=.>.>.>.:.l.6.r.y.4.4 0 7 q $.r.*.<.5.>.>.;.>.>.>.>.>.>.>.>.>.>.>.>.>.>.>.",
">.>.>.>.>.>.>.>.>.>.>.>.>.;.>.>.>.>.:.-.;.;.:.@.N m %.6.>.;.-.=.>.>.>.>.>.>.>.>.>.>.>.>.>.>.>.>.>.>.",
">.>.>.>.>.>.>.>.>.>.>.>.>.>.>.>.>.>.;.;.>.>.;.i.7.0.<.:.>.>.>.>.>.>.>.>.>.>.>.>.>.>.>.>.>.>.>.>.>.>.",
">.>.>.>.>.>.>.>.>.>.>.>.>.>.>.>.>.>.>.>.>.>.>.:.:.:.,.>.>.>.>.>.>.>.>.>.>.>.>.>.>.>.>.>.>.>.>.>.>.>.",
">.>.>.>.>.>.>.>.>.>.>.>.>.>.>.>.>.>.>.>.>.>.>.>.;.>.>.>.>.>.>.>.>.>.>.>.>.>.>.>.>.>.>.>.>.>.>.>.>.>.",
">.>.>.>.>.>.>.>.>.>.>.>.>.>.>.>.>.>.>.>.>.>.>.>.>.>.>.>.>.>.>.>.>.>.>.>.>.>.>.>.>.>.>.>.>.>.>.>.>.>.",
">.>.>.>.>.>.>.>.>.>.>.>.>.>.>.>.>.>.>.>.>.>.>.>.>.>.>.>.>.>.>.>.>.>.>.>.>.>.>.>.>.>.>.:.>.>.>.>.>.>.",
">.>.>.>.>.>.>.>.>.>.>.>.>.>.>.>.>.>.>.>.>.>.>.>.>.>.>.>.>.>.>.>.>.>.>.>.>.>.>.>.>.>.>.>.>.>.>.>.>.>.",
">.>.>.>.>.>.>.>.>.>.>.>.>.>.>.>.>.>.>.>.>.>.>.>.>.>.>.>.>.>.>.>.>.>.>.>.>.>.>.>.>.>.>.>.>.>.>.>.>.>.",
">.>.>.>.>.>.>.>.>.>.>.>.>.>.>.>.>.>.>.>.>.>.>.>.>.>.>.>.>.>.>.>.>.>.>.>.>.>.>.>.>.>.>.>.>.>.>.>.>.>.",
">.>.>.>.>.>.:.>.>.>.>.>.>.>.>.>.>.>.>.>.>.>.>.>.>.>.>.>.>.>.>.>.>.>.>.>.>.>.>.>.>.>.>.>.>.>.>.>.>.>.",
">.>.>.>.>.>.>.>.>.>.>.:.>.>.>.>.>.>.>.>.>.>.>.:.>.>.>.>.:.>.>.>.>.>.>.>.>.>.>.>.>.>.>.>.>.>.>.>.>.>.",
">.>.>.>.>.>.>.>.>.>.>.>.>.>.>.>.>.>.>.>.>.>.>.>.>.>.>.>.>.>.>.>.>.>.>.>.>.>.>.>.>.>.>.>.>.>.>.>.>.>.",
">.>.>.>.>.>.>.>.>.>.>.>.>.>.>.>.>.>.>.>.>.>.>.>.>.>.>.>.>.>.>.>.>.>.>.>.>.>.>.>.>.>.>.>.>.>.>.>.>.>.",
">.>.>.>.>.>.>.>.>.>.>.>.>.>.>.>.>.>.>.>.>.>.>.>.>.>.>.>.>.>.>.>.>.>.>.>.>.>.>.>.>.>.>.>.>.>.>.>.>.>.",
">.>.:.>.>.>.>.>.>.>.>.>.>.>.>.>.>.>.>.>.>.>.>.>.>.>.>.>.>.>.>.>.>.>.>.>.>.>.>.>.>.>.>.>.>.>.>.>.>.>.",
">.>.>.>.>.>.>.>.>.>.>.>.>.>.>.>.>.>.>.>.>.>.>.>.>.>.>.>.>.>.>.>.>.>.>.>.>.>.>.>.>.>.>.>.>.>.>.>.>.>.",
">.>.>.>.>.>.>.>.>.>.>.>.>.>.>.>.>.>.>.>.>.>.>.>.>.>.>.>.>.>.>.>.>.>.>.>.>.>.>.>.>.>.>.>.>.>.>.>.>.>.",
">.>.>.>.>.>.>.>.>.>.>.>.>.>.>.>.>.>.>.>.>.>.>.>.>.>.>.>.>.>.>.>.>.>.>.>.>.>.>.>.>.>.>.>.:.>.>.>.>.>.",
">.>.>.>.>.>.>.>.>.>.>.>.>.>.>.>.>.>.>.>.>.>.>.>.>.>.>.>.>.>.>.>.>.>.>.>.>.>.>.>.>.>.>.>.>.>.>.>.>.>.",
">.>.>.>.>.>.>.>.>.>.>.>.>.>.>.>.>.>.>.>.>.>.>.>.>.>.>.>.>.>.>.>.>.>.>.>.>.>.>.>.>.>.:.>.>.>.>.>.>.>."
};
