/* XPM */
static char *_924ae2d194e4041ca7c498b56cd29994jgS49sIvuNYUU0d[] = {
/* columns rows colors chars-per-pixel */
"50 50 144 2 ",
"   c #2F2F2E",
".  c #273138",
"X  c #2F3B3D",
"o  c #333335",
"O  c #323438",
"+  c #39373A",
"@  c #363D45",
"#  c #3A3F40",
"$  c #523844",
"%  c #753E5B",
"&  c #20424C",
"*  c #394649",
"=  c #3F5645",
"-  c #3D5C44",
";  c #3B4F51",
":  c #2E7D42",
">  c #274F61",
",  c #375C65",
"<  c #2B606F",
"1  c #366069",
"2  c #454544",
"3  c #484547",
"4  c #4E4149",
"5  c #4B4C4B",
"6  c #504F4F",
"7  c #455449",
"8  c #4C534F",
"9  c #494454",
"0  c #545454",
"q  c #585657",
"w  c #575A57",
"e  c #595758",
"r  c #5B5B5B",
"t  c #6B445C",
"y  c #6E485B",
"u  c #605E5F",
"i  c #71525F",
"p  c #4A6652",
"a  c #516F56",
"s  c #556459",
"d  c #5D615E",
"f  c #556C5B",
"g  c #596B5D",
"h  c #457250",
"j  c #59715E",
"k  c #547B5A",
"l  c #525F68",
"z  c #794862",
"x  c #4E6568",
"c  c #5F6460",
"v  c #5D6D61",
"b  c #5C7562",
"n  c #5B7C63",
"m  c #646464",
"M  c #646A65",
"N  c #686B69",
"B  c #657067",
"V  c #6A736C",
"C  c #667D6B",
"Z  c #717769",
"A  c #834263",
"S  c #9B5077",
"D  c #995C77",
"F  c #A6477A",
"G  c #A6587C",
"H  c #896470",
"J  c #319D4B",
"K  c #2EA04B",
"L  c #2AB44C",
"P  c #39A754",
"I  c #34B453",
"U  c #39B756",
"Y  c #37BA57",
"T  c #3CBE5C",
"R  c #488C55",
"E  c #54815F",
"W  c #548B5A",
"Q  c #4A945A",
"!  c #46995B",
"~  c #43A55B",
"^  c #42AB5B",
"/  c #40BF5F",
"(  c #5C8566",
")  c #5D8D69",
"_  c #4F9A61",
"`  c #539B65",
"'  c #569E68",
"]  c #66886A",
"[  c #60976D",
"{  c #6A8571",
"}  c #6A8B72",
"|  c #76907C",
" . c #49AE62",
".. c #57A86B",
"X. c #47B562",
"o. c #49B263",
"O. c #45BE63",
"+. c #49BE66",
"@. c #5AB06F",
"#. c #5BB772",
"$. c #59BC72",
"%. c #63A774",
"&. c #68A877",
"*. c #1BDA4A",
"=. c #2AC04E",
"-. c #22CF4D",
";. c #22D64E",
":. c #21DB4E",
">. c #2FC353",
",. c #2DCC54",
"<. c #31CB57",
"1. c #3CC45E",
"2. c #35CB5A",
"3. c #3BCB5E",
"4. c #25D651",
"5. c #2CD355",
"6. c #24DA51",
"7. c #2ADA56",
"8. c #2FD558",
"9. c #33D35B",
"0. c #33D95C",
"q. c #3ED062",
"w. c #43C462",
"e. c #48C266",
"r. c #4DC56B",
"t. c #49C869",
"y. c #5ACD76",
"u. c #58D376",
"i. c #186E84",
"p. c #236E80",
"a. c #28778A",
"s. c #C04C86",
"d. c #CF4C8C",
"f. c #2D849B",
"g. c #209AB6",
"h. c #339EB6",
"j. c #399FB9",
"k. c #62848E",
"l. c #4691A6",
"z. c #47BFDA",
"x. c #43CAEA",
"c. c #74DCF4",
"v. c #92BEC5",
"b. c #B2E3EA",
/* pixels */
"*.*.*.*.*.*.*.*.*.*.*.*.*.*.*.*.*.*.*.*.*.*.*.*.*.*.*.*.*.*.*.*.*.*.*.*.*.*.*.*.*.*.*.*.*.*.*.*.*.*.",
"*.*.*.*.*.*.*.*.*.*.*.*.*.*.*.*.*.*.*.*.*.*.*.*.*.*.*.*.*.*.*.*.*.*.*.*.*.*.*.*.*.*.*.*.*.*.*.*.*.*.",
"*.*.*.*.*.*.*.*.*.*.*.*.*.*.*.*.*.*.*.*.*.*.*.*.*.*.*.*.*.*.*.*.*.*.*.*.*.*.*.*.*.*.*.*.*.*.*.*.*.*.",
"*.*.*.*.*.*.*.*.*.*.*.*.*.*.*.*.*.*.*.*.*.*.*.*.*.*.*.*.*.*.*.*.*.*.*.*.*.*.*.*.*.*.*.*.*.*.*.*.*.*.",
"*.*.*.*.*.*.*.*.*.*.*.*.*.*.*.*.*.*.*.*.*.*.*.*.*.*.*.*.*.*.*.*.*.*.*.*.*.*.*.*.*.*.*.*.*.*.*.*.*.*.",
"*.*.*.*.*.*.*.*.*.*.*.*.*.*.*.*.*.*.*.*.*.*.*.*.*.*.*.*.*.*.*.*.*.*.*.*.*.*.*.*.*.*.*.*.*.*.*.*.*.*.",
"*.*.*.*.*.*.*.*.*.*.*.*.*.*.*.*.*.*.*.*.*.*.*.*.*.*.*.*.*.*.*.*.*.*.*.*.*.*.*.*.*.*.*.*.*.*.*.*.*.*.",
"*.*.*.*.*.*.*.*.*.*.*.*.*.*.*.*.*.*.*.*.*.*.*.*.*.*.*.*.*.*.*.*.*.*.*.*.*.*.*.*.*.*.*.*.*.*.*.*.*.*.",
"*.*.*.*.*.*.*.*.*.*.*.*.*.*.*.*.*.*.*.*.*.*.*.*.*.*.*.*.*.*.*.*.*.*.*.*.*.*.*.*.*.*.*.*.*.*.*.*.*.*.",
"*.*.*.*.*.*.*.*.*.*.*.*.*.*.*.*.*.*.*.*.*.*.*.*.*.*.*.*.*.*.*.*.*.*.*.*.*.*.*.*.*.*.*.*.*.*.*.*.*.*.",
"*.*.*.*.*.*.*.*.*.*.*.*.*.*.*.*.*.*.*.*.*.*.*.*.*.*.*.*.*.*.*.*.*.*.*.*.*.*.*.*.*.*.*.*.*.*.*.*.*.*.",
"*.*.*.*.*.*.*.*.*.*.*.*.*.*.*.*.*.*.7.:.*.*.*.*.*.*.*.*.*.;.5.-.*.*.*.*.*.*.*.*.*.*.*.*.*.*.*.*.*.*.",
"*.*.*.*.*.*.*.*.*.*.*.*.*.*.*.*.*.;.k Q 5.:.*.*.*.*.*.*.:.O.a ~ *.*.*.*.*.*.*.*.*.*.*.*.*.*.*.*.*.*.",
"*.*.*.*.*.*.*.*.*.*.*.*.*.*.*.*.*.:.R y h Y :.*.*.*.*.*.K 0 i / *.*.*.*.*.*.*.*.*.*.*.*.*.*.*.*.*.*.",
"*.*.*.*.*.*.*.*.*.*.*.*.*.*.*.*.*.*.>.H A 7 J -.-.;.,.: 4 S ] ;.*.*.*.*.*.*.*.*.*.*.*.*.*.*.*.*.*.*.",
"*.*.*.*.*.*.*.*.*.*.*.*.*.*.*.*.*.*.*.W G A 2 - - p = 4 F G U *.*.*.*.*.*.*.*.*.*.*.*.*.*.*.*.*.*.*.",
"*.*.*.*.*.*.*.*.*.*.*.*.*.*.*.*.*.*.*.=.D s.t 2 2 3 2 z d.Z 4.*.*.*.*.*.*.*.*.*.*.*.*.*.*.*.*.*.*.*.",
"*.*.*.*.*.*.*.*.*.*.*.*.*.*.*.*.*.*.:.6.k t @ O o o @ 4 z ^ *.*.*.*.*.*.*.*.*.*.*.*.*.*.*.*.*.*.*.*.",
"*.*.*.*.*.*.*.*.*.*.*.*.*.*.*.:.:.*.w.&.p < l.x   & f.k.8 ` $.:.*.*.*.*.*.*.*.*.*.*.*.*.*.*.*.*.*.*.",
"*.*.*.*.*.*.*.*.*.*.*.*.*.*.*.u.u.:.@.r ; g.c.v.O i.x.b.x 8 } 7.5.y.6.*.*.*.*.*.*.*.*.*.*.*.*.*.*.*.",
"*.*.*.*.*.*.*.*.*.*.*.*.*.*.*.,.[ r.} q * h.x.j.. p.x.z., 5 M w.P  .*.*.*.*.*.*.*.*.*.*.*.*.*.*.*.*.",
"*.*.*.*.*.*.*.*.*.*.*.*.*.*.*.;.k m m r 2 1 f.> z 9 a.p.* 0 m v s T *.*.*.*.*.*.*.*.*.*.*.*.*.*.*.*.",
"*.*.*.*.*.*.*.*.*.*.*.*.*.:.*.9.B q c r 0 8 # + % $ X 8 w q m w d r.*.*.*.*.*.*.*.*.*.*.*.*.*.*.*.*.",
"*.*.*.*.*.*.*.*.*.*.*.*.9...O...M q q q k r.f 3 2 3 7 $.) q w 0 m ) 1.I w.*.*.*.*.*.*.*.*.*.*.*.*.*.",
"*.*.*.*.*.*.*.*.*.*.*.*.5.f m m m r 6 q X.:.Y f u r ~ *.<.g 6 r m m m r #.*.*.*.*.*.*.*.*.*.*.*.*.*.",
"*.*.*.*.*.*.*.*.*.*.*.*.0.n q m M m 0 b 8.*.*.e.%.X.6.*.*.! 0 u N M r c r.*.*.*.*.*.*.*.*.*.*.*.*.*.",
"*.*.*.*.*.*.*.*.*.*.*.*.7.{ q r M m w ! *.*.*.*.*.*.*.*.*.Y w m m r q m r.*.*.*.*.*.*.*.*.*.*.*.*.*.",
"*.*.*.*.*.*.*.*.*.*.*.*.8.C u 6 r u q I *.*.*.*.*.*.*.*.*.<.s r r 0 r M t.*.*.*.;.;.*.*.*.*.*.*.*.*.",
"*.*.*.*.*.*.*.4.o.w.0.0.$.N m r 6 0 5 L *.*.*.*.*.*.*.*.*.8.s 6 0 0 m m %.0.7.,...q.*.*.*.*.*.*.*.*.",
"*.*.*.*.*.*.*.;.^ d { | V m m m e 6 3 I *.*.*.*.*.*.*.*.*.5.p 5 0 m m m m } } g ( 0.*.*.*.*.*.*.*.*.",
"*.*.*.*.*.*.*.*.;.E q u m m m m m 0 5 n 2.*.*.*.*.*.*.*.6._ 5 6 r m N m m u r g 2.*.*.*.*.*.*.*.*.*.",
"*.*.*.*.*.*.*.*.*.1.B r r r r u e 0 0 l _ *.*.*.*.*.*.*./ m q q q r r r q r r  .:.*.*.*.*.*.*.*.*.*.",
"*.*.*.*.*.*.*.*.*.*./ j r r q q e u j ~ 5.;.*.*.*.*.*.*.:.o.b d r q w q r M %.7.*.*.*.*.*.*.*.*.*.*.",
"*.*.*.*.*.*.*.*.*.*.*.<.' b M b C ` 2.*.*.*.*.*.*.*.*.*.*.*.4.^ ] v M M ) +.7.*.*.*.*.*.*.*.*.*.*.*.",
"*.*.*.*.*.*.*.*.*.*.*.*.*.5.2.<.,.;.*.*.*.*.*.*.*.*.*.*.*.*.*.*.4.5.3.3.7.*.*.*.*.*.*.*.*.*.*.*.*.*.",
"*.*.*.*.*.*.*.*.*.*.*.*.*.*.*.*.*.*.*.*.*.*.*.*.*.*.*.*.*.*.*.*.*.*.*.*.*.*.*.*.*.*.*.*.*.*.*.*.*.*.",
"*.*.*.*.*.*.*.*.*.*.*.*.*.*.*.*.*.*.*.*.*.*.*.*.*.*.*.*.*.*.*.*.*.*.*.*.*.*.*.*.*.*.*.*.*.*.*.*.*.*.",
"*.*.*.*.*.*.*.*.*.*.*.*.*.*.*.*.*.*.*.*.*.*.*.*.*.*.*.*.*.*.*.*.*.*.*.*.*.*.*.*.*.*.*.*.*.*.*.*.*.*.",
"*.*.*.*.*.*.*.*.*.*.*.*.*.*.*.*.*.*.*.*.*.*.*.*.*.*.*.*.*.*.*.*.*.*.*.*.*.*.*.*.*.*.*.*.*.*.*.*.*.*.",
"*.*.*.*.*.*.*.*.*.*.*.*.*.*.*.*.*.*.*.*.*.*.*.*.*.*.*.*.*.*.*.*.*.*.*.*.*.*.*.*.*.*.*.*.*.*.*.*.*.*.",
"*.*.*.*.*.*.*.*.*.*.*.*.*.*.*.*.*.*.*.*.*.*.*.*.*.*.*.*.*.*.*.*.*.*.*.*.*.*.*.*.*.*.*.*.*.*.*.*.*.*.",
"*.*.*.*.*.*.*.*.*.*.*.*.*.*.*.*.*.*.*.*.*.*.*.*.*.*.*.*.*.*.*.*.*.*.*.*.*.*.*.*.*.*.*.*.*.*.*.*.*.*.",
"*.*.*.*.*.*.*.*.*.*.*.*.*.*.*.*.*.*.*.*.*.*.*.*.*.*.*.*.*.*.*.*.*.*.*.*.*.*.*.*.*.*.*.*.*.*.*.*.*.*.",
"*.*.*.*.*.*.*.*.*.*.*.*.*.*.*.*.*.*.*.*.*.*.*.*.*.*.*.*.*.*.*.*.*.*.*.*.*.*.*.*.*.*.*.*.*.*.*.*.*.*.",
"*.*.*.*.*.*.*.*.*.*.*.*.*.*.*.*.*.*.*.*.*.*.*.*.*.*.*.*.*.*.*.*.*.*.*.*.*.*.*.*.*.*.*.*.*.*.*.*.*.*.",
"*.*.*.*.*.*.*.*.*.*.*.*.*.*.*.*.*.*.*.*.*.*.*.*.*.*.*.*.*.*.*.*.*.*.*.*.*.*.*.*.*.*.*.*.*.*.*.*.*.*.",
"*.*.*.*.*.*.*.*.*.*.*.*.*.*.*.*.*.*.*.*.*.*.*.*.*.*.*.*.*.*.*.*.*.*.*.*.*.*.*.*.*.*.*.*.*.*.*.*.*.*.",
"*.*.*.*.*.*.*.*.*.*.*.*.*.*.*.*.*.*.*.*.*.*.*.*.*.*.*.*.*.*.*.*.*.*.*.*.*.*.*.*.*.*.*.*.*.*.*.*.*.*.",
"*.*.*.*.*.*.*.*.*.*.*.*.*.*.*.*.*.*.*.*.*.*.*.*.*.*.*.*.*.*.*.*.*.*.*.*.*.*.*.*.*.*.*.*.*.*.*.*.*.*.",
"*.*.*.*.*.*.*.*.*.*.*.*.*.*.*.*.*.*.*.*.*.*.*.*.*.*.*.*.*.*.*.*.*.*.*.*.*.*.*.*.*.*.*.*.*.*.*.*.*.*."
};
