/* XPM */
static char *_88c49c62206452fe48d2c2fa06ad1a2FrvMIDWZYk23gWWH[] = {
/* columns rows colors chars-per-pixel */
"50 50 151 2 ",
"   c #0A090A",
".  c #100F0F",
"X  c #171516",
"o  c #181516",
"O  c #191718",
"+  c #1C1B1B",
"@  c #201E1F",
"#  c #211F20",
"$  c #252323",
"%  c #282627",
"&  c #2C2B2C",
"*  c #302E2F",
"=  c #312F30",
"-  c #343334",
";  c #383637",
":  c #393836",
">  c #393738",
",  c #3C3B3B",
"<  c #413E3F",
"1  c #413F40",
"2  c #444343",
"3  c #484747",
"4  c #484847",
"5  c #494748",
"6  c #4C4B4B",
"7  c #504E4F",
"8  c #514F50",
"9  c #545353",
"0  c #585757",
"q  c #575857",
"w  c #595758",
"e  c #5C5B5B",
"r  c #605F5F",
"t  c #61605F",
"y  c #615F60",
"u  c #5F6060",
"i  c #646364",
"p  c #686767",
"a  c #696768",
"s  c #6C6B6B",
"d  c #706F6F",
"f  c #6F706F",
"g  c #716F70",
"h  c #747374",
"j  c #787777",
"k  c #787877",
"l  c #787778",
"z  c #777878",
"x  c #797878",
"c  c #797879",
"v  c #797979",
"b  c gray47",
"n  c #7A797A",
"m  c gray48",
"M  c #7C7B7B",
"N  c #7C7B7C",
"B  c #7D7C7C",
"V  c #7E7D7E",
"C  c #7E7E7E",
"Z  c #7C7C7C",
"A  c #807F7F",
"S  c #80807F",
"D  c #817F80",
"F  c #808080",
"G  c #828181",
"H  c #838282",
"J  c #848383",
"K  c #848384",
"L  c gray52",
"P  c #858484",
"I  c #868585",
"U  c #878586",
"Y  c #878687",
"T  c gray53",
"R  c #868686",
"E  c #848484",
"W  c #888787",
"Q  c #888787",
"!  c #878887",
"~  c #888788",
"^  c #888788",
"/  c #878888",
"(  c #878888",
")  c #888888",
"_  c #898889",
"`  c #898988",
"'  c #8A8A89",
"]  c gray54",
"[  c #8B8A8A",
"{  c #8A8B8A",
"}  c #8B8B8A",
"|  c #8B8A8B",
" . c #8B8B8B",
".. c #8C8B8B",
"X. c #8B8C8B",
"o. c #8C8B8C",
"O. c gray55",
"+. c #8D8C8D",
"@. c #8D8D8D",
"#. c #8E8D8D",
"$. c #8D8E8D",
"%. c #8E8D8E",
"&. c #8E8E8E",
"*. c #8F8E8E",
"=. c #8E8F8E",
"-. c #8F8E8F",
";. c gray56",
":. c #8D8D8D",
">. c #908F8F",
",. c #8F908F",
"<. c #908F90",
"1. c #908F90",
"2. c #8F9090",
"3. c #909090",
"4. c #909190",
"5. c #919091",
"6. c gray57",
"7. c #929191",
"8. c #919291",
"9. c #929192",
"0. c #929292",
"q. c #939292",
"w. c #929393",
"e. c #939393",
"r. c #939493",
"t. c #939494",
"y. c gray58",
"u. c #949595",
"i. c #959595",
"p. c #959696",
"a. c gray59",
"s. c #969796",
"d. c #979797",
"f. c #939393",
"g. c #989798",
"h. c #979898",
"j. c #989898",
"k. c #989998",
"l. c #989899",
"z. c gray60",
"x. c #999A99",
"c. c #9A9A99",
"v. c #9A9A9A",
"b. c #9A9B9A",
"n. c #9A9B9B",
"m. c #9B9B9B",
"M. c #9B9C9C",
"N. c #9A9A9A",
"B. c #9FA0A0",
"V. c #A0A0A0",
"C. c gray63",
/* pixels */
"6.&.&.&.&.2 W 6.&.&.&.a.e s a.&.&.&.&.t.p p n.1.y.g.a.1.g.s C y.a.a.w.&.V.0 p g.D C F F F J 1.t t k.",
"&.&.&.&.a.0 ) &.&.o...6.s s r.&.&.O.&.&.s 0 Y F c e 8 2 4 1 - 5 e h C C h $ 9 k.&.&.;.2.&.) 6.s s a.",
"a.&.&.6.R 6 C 6.6.y.y.k.i s M.t.&.6.6.k.x $ i 1 - e w e i h p s p r e e 2 6 0 &.&.&.&.&.&.&.g.p s k.",
"c R 6.h > + ; 6 9 0 r i & > e i q g h i ; s 6.i 6 m.W &.) &.R D 6.&.&.6.j ) s h 6.&.&.&.&.&.a.i $ 9 ",
"h , , & f h h h h h h h h s e 6 % 4 3 4 2 h &.) 6 g.a.6.&.6.R x 6.&.&.! e j C g 6.&.o.&.&.) y.i h F ",
"r.p c i ) R ) ~ R &.&.&.o.) 6.g.6 h z h h s 6.2 - e s F 6.a.6.h 6.6.g.c 1.k.k.i C a.y.a.a.6.g.s ~ a.",
"R h h.s C 6.6.O.M 6.&.&.&.6.&.} 0 h h z z 5 e h J g i 7 7 s s , 2 3 2 - r g 3 + & i e e i N s + 9 ) ",
"; & i < ) &.&.6.N ~ &.o.&.&.&.&.9 h c h s 2 s k.! ..K K D 4 h R 6 4 w 2 7 6 i s s d s s 9 6 & = : 2 ",
"c p e ; ) 6.6.t.O.S r.6.6.6.6.&.0 c f u s e e 6.>.>.&.R R h o.g.i F 6.) 6 6.R ~ 3.&.6.) k.0 s s.F M ",
"} R r.i 4 h h h F c F h p i i 9 - s i h m s 9 &.&.&.&.>.R p F h 0 ) a.) 9 6.&.&.&.&.&.&.a.p h ! F K ",
"6.) 2.s # e e 0 w ; e h d h h i 9 h m c m s e | &.&.&.&.a.6 9 6 2 i ) s 3 r.&.&.&.&.&.X.a.e a n.&.6.",
"6.&.6.C g R J ~ d.0 M } F A R a.i s g s e q y o.&.&.&.) 6.y ~ y.C h h , i >.&.&.&.&.&.&.6.u > C 6.&.",
"6.&.6.F s g.J h 0 6 S a.&.&.&.K 9 p i s s j < | 6.1.a.6.k.s &.1.) ~ ) h e k.>.} &.&.&.6.,.F e h 6.&.",
"r.,.,.) 2 6 3 2 0 4 c C R &.6.F N 6.) ~ ) &., s 6.R h h s - N o.k.a.6.R $ e &.y.a.a.6.s ,.F > &.&.&.",
"c R &.a.: 0 x D a.s Z R C C ,.s 3 j C e r 4 * , ; % , 2 2 , 8 7 9 s j 0 s X > 6 9 e 0 e F 2 2 a.&.&.",
"F &.a.k.3 C y.&.6.s c a.&.&.) e i j d h M D R &.0 2 ~ C R &.R 6.2 0 s p h s i r e e e i % 4 6 p a.6.",
"t 9 i 6   e ) O.6.d R ;.o.6.>.9 K y.&...) ) R 6.s 0 6.| &.O.) | c ! 3...W &.N ) ..W ~ 6.w t.h & 4 9 ",
"; 6 r y s 0 6.h.;.e &.t.a.R e , ) 1.&.>.;.;.&.a.s 9 6.&.&.&.2.&.k F k.a.a.F W ..y.y.6.g.e &.,.2 e 0 ",
"h >.F c ~ 9 7 i 9 & S S e , 2 & 6.&.&.&.2.;.&.w.c 4 6.&.&.&.&.t.c e d h i p N j F c F i , s 0 K 6.) ",
"s < 6 3 2 = ; 9 e 6 e , - 6.C > ) &.&.&.) O.2.a.s 2 w.&.&.&.&.6.k + e e 3 6 + 2 e 0 e 7 8 6 2 &.&.6.",
"p e &.R 6.1.1.&.a.a.a.) s h ; % > 2 2 2 1 , 2 2 o 6 h.| &.&.2.a.h h k.6.z a.2 h &.R R ) ) &.x R ,.&.",
"s i a.X.~ C 6.&.O.| ) a.7 e C | C p s h p d c B s 0 M.1.&.&.R &.s i R c i e 9 C 6.&.&.&.) 6.g R 6.&.",
"s i a.&.) h ;.&.O.6.a.B.e R V.6.k.C i K e 0 c h 6 % p 4 2 1 4 8 ; > < 9 w 2 i h 6.) &.2.a.k.c ~ &.&.",
"s s a.&.k.2.h w.a.z e 7 O 2 8 0 2 9 9 > - i i s s h s m s 0 e C j N M C x ~ s i s.a.a.R h 4 2 &.&.&.",
"s 9 g.C i 4 - 2 > : 2 w r w e 4 e 6.w.C s M.| | &.O.| 6.6.i h t.| O.;.&.&.2.6.e ) i 2 % % 2 , &.&.&.",
"J 2 , 2 9 i R h 1 y.~ ) | W 6.A s 6.) C p 2.&.&.&.&.;.| a.i s a.&.&.&.&.&.O.w.9 % > 4 h ) 6.i W >.&.",
"6.2 h ..) / X.E i a.~ o.&.~ O.&.s a.M.F s X.&.| O.2.6.6.h.h h ;.O.&.&.&.&.&.2.i r | h m t.;.0 ) 6.6.",
"j * &.o.) &.6.R - C k.y.y.i J R 4 K h 6 i 6.w.a.t.) C m h - s g.a.2.O.O.&.O.t.S a Y F g ) a.9 C R ) ",
"- p ) 6.2.&.,.) , 2 w 3 , i , , & 5 6 1 4 0 e h 9 2 4 6 6 > = ; e | a.g.t.t.O.0 & 2 2 9 e 0 , 3 2 , ",
"&.5 C r.&.&.&.F 9 g g s i 3 h W &.R W _ ~ F c 1 > ) K R R N K 4 > - 7 4 2 9 % $ 3 h s h h s A A F C ",
"n.6 h a.&.6.a.A i a.J R 6.i J 6.&.&.>.&.&.&.n.h e a.) 6.R h ;.D 2.R 2 = h S 7 r d h.| ;.&.&.) ) ) X.",
"M.2 i h.! R F g 9 C K &.g < &.&.&.>.o.&.&.o.y.s e k.&.6.C &.) i h.B.g q B.n.K e i g.O.;.,.,.6.&.3.&.",
"g.e , 2 2 ; > & # ; 2 1 + - a.&.&.&.&.&.&.&.6.a i t.) O.p x i 2 9 e , 9 A h 2 2 e s.X.&.&.&.&.&.} &.",
"C 6 d 6 e 9 h i C S C F h , 6.o.&.O.O.&.&.O.;.s % q 4 = 2 4 $ & 1 1 4 a 6 < ; $ e k.&.) &.} &.>.3.3.",
", i 6.J ) B c R &.) &.&.1.6 &.k.h.h.t.w.t.a.M.i 0 6.z 6 6.k.i i g.R ) F F A &.R 3 d.r.a.a.a.) ) J C ",
"> ,.6.F s s ,.&.&.O.O.| k.8 3 e e i h z s e e . d k.h i 6.w.i s n.w.&.) a.&.C i 2 d j e 6 , * 9 i s ",
"e ! r.n.e S s.2.&.,.a.&.h e 2 2 y 5   ; i i e 9 9 q % s w.g.e $ s i w 6 5 : > ; e i e i s s Z 0 9 C ",
"0 E m g ; 9 c C ) C r 2 , 7 | o.| 6.6 g m.&.N F C m 9 x w.w.e q s s s 6 $ M } ! o.~ ) k.a.,.a.h c &.",
"% * % & - 2 0 e > % e c ;.C Y &.;.F a h 1.6.y x ;.6.3 z w.1.h | &.o.) ) i d.&.&.>.) h &.&.&.a.s > 4 ",
"! R 2.&.t.s.t.a.h s F ) &.R ) g.6.k.i c y.6.s K w.;.2 C 1.&.i | 1.&.6.) i 3.&.&.&.3.6 C 6.6.k.9 6 R ",
"6.3.>.) } ..&.3.F 4 , : 2 6 9 0 0 i $ i y.g.x F w.h > ;.k.h 4 a.} &.,.) 0 &.&.&.&.) g D >.h 6 @ ) g.",
"6.&.&.&.&.&.&.6.h 2 ~ K h h i e 7 2 * : 9 6 , 2 , 4 2 6 9 $ e t.) &.&.&.6 &.a.6.a.&.e < < 7 M 0 F 1.",
"6.&.&.&.&.&.} 6.h i a.;.6.w.N R 6.&.o.R M x > & g h h p j - p B.a.a.r.B.> > e 4 6 & 2 > c a.~ 6 ) 6.",
"6.&.&.6.6.6.r.k.C i 6.&.2.c h ) &.&.&.&.>.a.x 9 y.W &.o.k.y ; i s s i e $ s c s C e 7 i 9 6 - + D a.",
"6.&.) R F c h p % 7 ) ) 6.c M.k.K 1.y.g.g.&.p < ~ a.y.6.k.i 4 e 2 4 6 2 & ) 1.R 6.M i &.D D R h 4 ;.",
"0 i ; , 2 3 6 2 2 2 2 2 - 2 i 9 : , 6 6 3 9 1 s e s i h C 2 R t.R ) R y.x h a.&.6.N C 6.R J C a.6 4 ",
"F Y 0 s ~ J R A F ) 6.R w & r i h x h h 2 h 0 6 - 2 5 5 , % ) &.&.&.&.6.h d a.o.6.C x 6.&.&.&.&.W > ",
"&.6.c s g.y.y.y.6.y.r.a.d h V.a.y.y.6.V.i 2 F j W ) ~ R &.s C 6.&.>.o.y.c e a.&.a.C h a.&.&.&.O.k.4 ",
"5 e - + 4 9 8 0 e e e 1 3 z 6.o.&.&.o.a.i i g.) | O.O.&.w.i F 6.&.&.&.&...3 N C F 2 9 &.c C / ) i - ",
"~ c C c i X 6 s s h d s 2 h w.&.&.&.o.a.s s a.&.;.2.&.&.6.e h 6.&.&.&.&.6.i 7 e 2 * = 4 2 2 2 & , h "
};
